<?xml version="1.0" encoding="utf-8"?>
<!-- Generator: Adobe Illustrator 26.0.3, SVG Export Plug-In . SVG Version: 6.00 Build 0)  -->
<svg version="1.1" id="Layer_1" xmlns="http://www.w3.org/2000/svg" xmlns:xlink="http://www.w3.org/1999/xlink" x="0px" y="0px"
	 viewBox="0 0 1024 1024" style="enable-background:new 0 0 1024 1024;" xml:space="preserve">
<style type="text/css">
	.st0{fill-rule:evenodd;clip-rule:evenodd;fill:#E0E7FF;}
</style>
<path class="st0" d="M245.8,167.9c25.2,11,36.7,40.3,25.7,65.5c-37.2,85.2-57.9,179.4-57.9,278.6c0,99.1,20.7,193.3,57.9,278.6
	c11,25.2-0.5,54.5-25.7,65.5c-25.2,11-54.5-0.5-65.5-25.7C137.6,732.8,114,625.1,114,512c0-113.1,23.6-220.8,66.3-318.4
	C191.3,168.4,220.6,156.9,245.8,167.9z M659.3,362.7c-45.3,0-88.2,20.6-116.5,56l-16.3,20.4l-5.5-13.8
	c-15.1-37.8-51.7-62.5-92.4-62.5h-16.1c-27.5,0-49.8,22.3-49.8,49.8c0,27.5,22.3,49.8,49.8,49.8h16.1l26.5,66.2l-51.5,64.4
	c-9.4,11.8-23.7,18.7-38.8,18.7h-1.9c-27.5,0-49.8,22.3-49.8,49.8c0,27.5,22.3,49.8,49.8,49.8h1.9c45.3,0,88.2-20.6,116.5-56
	l16.3-20.4l5.5,13.8c15.1,37.8,51.7,62.5,92.4,62.5h16.1c27.5,0,49.8-22.3,49.8-49.8c0-27.5-22.3-49.8-49.8-49.8h-16.1L569,545.3
	l51.5-64.4c9.4-11.8,23.7-18.7,38.8-18.7h1.9c27.5,0,49.8-22.3,49.8-49.8c0-27.5-22.3-49.8-49.8-49.8H659.3z M752.6,233.4
	c-11-25.2,0.5-54.5,25.7-65.5c25.2-11,54.5,0.5,65.5,25.7C886.4,291.2,910,398.9,910,512c0,113.1-23.6,220.8-66.3,318.4
	c-11,25.2-40.3,36.7-65.5,25.7c-25.2-11-36.7-40.3-25.7-65.5c37.2-85.2,57.9-179.4,57.9-278.6C810.5,412.9,789.8,318.7,752.6,233.4z
	"/>
</svg>
